<svg xmlns="http://www.w3.org/2000/svg" xmlns:xlink="http://www.w3.org/1999/xlink" width="700" zoomAndPan="magnify" viewBox="0 0 525 374.999991" height="500" preserveAspectRatio="xMidYMid meet" version="1.0"><defs><clipPath id="3063d142d5"><path d="M 23.167969 75.667969 L 501.667969 75.667969 L 501.667969 298 L 23.167969 298 Z M 23.167969 75.667969 " clip-rule="nonzero"/></clipPath><clipPath id="8c828e8b3c"><path d="M 23.167969 75.667969 L 501.667969 75.667969 L 501.667969 266 L 23.167969 266 Z M 23.167969 75.667969 " clip-rule="nonzero"/></clipPath><clipPath id="c162678d99"><path d="M 23.167969 155 L 499 155 L 499 255 L 23.167969 255 Z M 23.167969 155 " clip-rule="nonzero"/></clipPath></defs><rect x="-52.5" width="630" fill="#ffffff" y="-37.499999" height="449.999989" fill-opacity="1"/><rect x="-52.5" width="630" fill="#ffffff" y="-37.499999" height="449.999989" fill-opacity="1"/><g clip-path="url(#3063d142d5)"><path fill="#ffc655" d="M 498.335938 240.3125 L 498.023438 238.425781 L 495.203125 225.355469 C 488.003906 188.710938 480.859375 138.183594 480.882812 138.183594 L 425.417969 75.667969 L 103.777344 75.667969 C 83.050781 91.898438 50.140625 118.039062 32.335938 133.789062 C 28.945312 149.238281 24.125 228.152344 23.773438 247.058594 C 23.773438 247.195312 23.769531 247.359375 23.761719 247.523438 L 23.671875 249.964844 C 23.503906 253.859375 23.191406 259.292969 23.191406 259.292969 C 23.191406 259.292969 38.40625 256.371094 44.917969 255.363281 C 51.453125 254.351562 57.773438 256.433594 64.167969 258.410156 C 65.308594 259.777344 66.464844 261.128906 67.628906 262.472656 C 64.21875 265.96875 60.8125 269.460938 57.402344 272.953125 C 53.800781 276.648438 50.195312 280.339844 46.59375 284.035156 C 44.554688 286.125 46.132812 289.851562 47.441406 291.988281 C 48.335938 293.449219 49.414062 295.015625 50.878906 295.957031 C 51.566406 296.398438 53.1875 297.421875 53.960938 296.628906 C 61.640625 288.757812 69.316406 280.890625 76.992188 273.023438 C 81.460938 278 85.953125 282.957031 90.488281 287.875 C 92.734375 290.308594 94.976562 292.757812 97.300781 295.121094 C 97.574219 295.402344 97.90625 295.601562 98.257812 295.765625 C 98.414062 296.667969 99.007812 297.402344 100.300781 297.628906 C 103.746094 298.242188 107.292969 296.039062 109.582031 293.691406 C 116.253906 286.855469 122.925781 280.015625 129.597656 273.179688 C 133.980469 278.058594 138.386719 282.921875 142.835938 287.742188 C 145.082031 290.179688 147.324219 292.625 149.644531 294.992188 C 150.519531 295.882812 152 295.992188 153.382812 295.773438 C 154.921875 296.488281 156.996094 296.210938 158.4375 295.5 C 159.644531 294.90625 162.261719 292.921875 160.695312 291.328125 C 155.738281 286.28125 151.019531 280.984375 146.261719 275.746094 C 143.179688 272.355469 140.105469 268.953125 137.054688 265.535156 C 139.230469 263.304688 141.40625 261.074219 143.582031 258.84375 C 155.96875 262.179688 168.28125 266.398438 181.054688 265.800781 C 197.289062 265.039062 212.316406 256.535156 228.570312 256.566406 C 240.699219 256.589844 252.148438 261.363281 264.074219 263.371094 C 276.226562 265.417969 288.964844 264.53125 300.636719 260.820312 C 313.179688 256.832031 325.203125 249.546875 338.449219 250.511719 C 343.601562 250.886719 348.523438 252.515625 353.492188 253.796875 C 358.796875 255.164062 364.222656 256.128906 369.695312 256.710938 C 371.3125 258.804688 372.960938 260.871094 374.632812 262.929688 C 369.929688 267.421875 365.226562 271.917969 360.523438 276.410156 C 356.792969 279.976562 353.0625 283.539062 349.328125 287.105469 C 348.199219 288.183594 347.414062 289.367188 347.566406 291.011719 C 347.566406 291.023438 347.570312 291.035156 347.570312 291.042969 C 347.429688 291.714844 347.503906 292.433594 347.8125 293.011719 C 348.148438 293.632812 348.761719 294.148438 349.445312 294.546875 C 349.625 294.71875 349.808594 294.878906 350 295.019531 C 352.535156 296.886719 357.519531 298.121094 360.160156 295.597656 C 367.890625 288.210938 375.625 280.824219 383.355469 273.4375 C 387.332031 278.179688 391.328125 282.910156 395.363281 287.605469 C 396.871094 289.359375 398.382812 291.109375 399.914062 292.839844 C 399.9375 292.878906 399.972656 292.917969 400.015625 292.953125 C 400.644531 293.664062 401.269531 294.386719 401.914062 295.089844 C 403.023438 296.300781 405.109375 296.285156 406.765625 295.871094 C 408.578125 295.941406 410.90625 295.261719 412.289062 294.324219 C 413.015625 294.304688 413.746094 294.21875 414.085938 293.894531 C 420.984375 287.304688 427.882812 280.710938 434.78125 274.121094 C 439.035156 279.15625 443.355469 284.128906 447.636719 289.109375 C 449.796875 291.625 451.949219 294.148438 454.1875 296.59375 C 454.578125 297.023438 456.035156 296.9375 456.464844 296.914062 C 456.609375 296.910156 456.757812 296.890625 456.90625 296.878906 C 456.917969 296.890625 456.929688 296.90625 456.941406 296.917969 C 459.015625 299.183594 467.679688 296.15625 465.453125 293.71875 C 460.671875 288.5 456.144531 283.039062 451.574219 277.640625 C 448.523438 274.035156 445.484375 270.417969 442.460938 266.785156 C 446.03125 263.375 449.601562 259.964844 453.171875 256.554688 C 454.132812 255.636719 455.09375 254.71875 456.054688 253.800781 C 457.449219 254.246094 458.871094 254.625 460.328125 254.871094 C 469.472656 256.421875 467.660156 253.824219 476.503906 251.207031 C 485.347656 248.589844 491.582031 250.257812 501.597656 253.164062 C 500.554688 249.640625 499.457031 245.269531 498.335938 240.3125 Z M 110.589844 280.605469 C 108.488281 282.757812 106.390625 284.910156 104.289062 287.0625 C 100.761719 283.304688 97.316406 279.464844 93.855469 275.65625 C 90.734375 272.214844 87.617188 268.769531 84.523438 265.304688 C 86.09375 263.695312 87.660156 262.089844 89.230469 260.480469 C 97.496094 259.046875 105.730469 256.308594 114.132812 255.355469 C 117.308594 259.277344 120.59375 263.097656 123.964844 266.894531 C 119.507812 271.464844 115.046875 276.035156 110.589844 280.605469 Z M 131.472656 259.203125 C 130.53125 258.125 129.574219 257.066406 128.636719 255.984375 C 128.523438 255.851562 128.417969 255.71875 128.304688 255.585938 C 130.226562 255.839844 132.144531 256.171875 134.054688 256.554688 C 133.195312 257.4375 132.332031 258.320312 131.472656 259.203125 Z M 411.273438 281.703125 C 409.972656 282.949219 408.667969 284.191406 407.367188 285.4375 C 404.632812 282.265625 401.941406 279.054688 399.238281 275.863281 C 396.496094 272.617188 393.753906 269.367188 391.03125 266.101562 C 393.769531 263.488281 396.507812 260.871094 399.246094 258.257812 C 400.15625 257.390625 401.0625 256.519531 401.972656 255.652344 C 405.953125 254.957031 409.890625 254.058594 413.753906 252.945312 C 414.910156 252.609375 416.074219 252.253906 417.238281 251.898438 C 420.648438 256.640625 424.222656 261.269531 427.90625 265.8125 C 422.363281 271.109375 416.820312 276.40625 411.273438 281.703125 Z M 435.621094 258.445312 C 435.300781 258.050781 434.972656 257.664062 434.65625 257.269531 C 432.445312 254.523438 430.375 251.707031 428.347656 248.839844 C 432.160156 248.070312 435.996094 247.734375 439.855469 248.335938 C 441.578125 248.601562 443.246094 249.054688 444.882812 249.597656 C 441.796875 252.546875 438.707031 255.496094 435.621094 258.445312 Z M 435.621094 258.445312 " fill-opacity="1" fill-rule="nonzero"/></g><path fill="#ffc655" d="M 160.695312 291.328125 C 162.261719 292.921875 159.644531 294.90625 158.4375 295.5 C 156.996094 296.210938 154.921875 296.488281 153.382812 295.773438 C 152 295.992188 150.519531 295.882812 149.644531 294.992188 C 147.324219 292.625 145.082031 290.179688 142.835938 287.742188 C 138.386719 282.921875 133.980469 278.058594 129.597656 273.179688 C 122.925781 280.015625 116.253906 286.855469 109.582031 293.691406 C 107.292969 296.039062 103.746094 298.242188 100.300781 297.628906 C 99.007812 297.402344 98.414062 296.667969 98.257812 295.765625 C 97.90625 295.601562 97.574219 295.402344 97.300781 295.121094 C 94.976562 292.757812 92.734375 290.308594 90.488281 287.875 C 85.953125 282.957031 81.460938 278 76.992188 273.023438 C 69.316406 280.890625 61.640625 288.757812 53.960938 296.628906 C 53.1875 297.421875 51.566406 296.398438 50.878906 295.957031 C 49.414062 295.015625 48.335938 293.449219 47.441406 291.988281 C 46.132812 289.851562 44.554688 286.125 46.59375 284.035156 C 50.195312 280.339844 53.800781 276.648438 57.402344 272.953125 C 60.8125 269.460938 64.21875 265.96875 67.628906 262.472656 C 66.464844 261.128906 65.308594 259.777344 64.167969 258.410156 C 67.730469 259.515625 71.3125 260.582031 74.96875 261.066406 C 79.757812 261.695312 84.5 261.300781 89.230469 260.480469 C 87.660156 262.089844 86.09375 263.695312 84.523438 265.304688 C 87.617188 268.769531 90.734375 272.214844 93.855469 275.65625 C 97.316406 279.464844 100.761719 283.304688 104.289062 287.0625 C 106.390625 284.910156 108.488281 282.757812 110.589844 280.605469 C 115.046875 276.035156 119.507812 271.464844 123.964844 266.894531 C 120.59375 263.097656 117.308594 259.277344 114.132812 255.355469 C 115.070312 255.25 116.011719 255.164062 116.957031 255.105469 C 120.777344 254.875 124.554688 255.089844 128.304688 255.585938 C 128.417969 255.71875 128.523438 255.851562 128.636719 255.984375 C 129.574219 257.066406 130.53125 258.125 131.472656 259.203125 C 132.332031 258.320312 133.195312 257.4375 134.054688 256.554688 C 137.242188 257.199219 140.414062 257.992188 143.582031 258.84375 C 141.40625 261.074219 139.230469 263.304688 137.054688 265.535156 C 140.109375 268.953125 143.179688 272.355469 146.261719 275.746094 C 151.019531 280.984375 155.738281 286.28125 160.695312 291.328125 Z M 465.453125 293.71875 C 460.671875 288.5 456.144531 283.039062 451.574219 277.640625 C 448.523438 274.035156 445.484375 270.417969 442.460938 266.785156 C 446.03125 263.375 449.601562 259.964844 453.171875 256.554688 C 454.132812 255.636719 455.09375 254.71875 456.054688 253.800781 C 452.269531 252.589844 448.652344 250.847656 444.882812 249.597656 C 441.796875 252.546875 438.707031 255.496094 435.621094 258.445312 C 435.300781 258.050781 434.972656 257.664062 434.65625 257.269531 C 432.445312 254.523438 430.375 251.707031 428.347656 248.839844 C 424.617188 249.59375 420.914062 250.769531 417.238281 251.898438 C 420.648438 256.640625 424.222656 261.269531 427.90625 265.8125 C 422.363281 271.109375 416.820312 276.40625 411.273438 281.703125 C 409.972656 282.949219 408.667969 284.191406 407.367188 285.4375 C 404.632812 282.265625 401.941406 279.054688 399.238281 275.863281 C 396.496094 272.617188 393.753906 269.367188 391.03125 266.101562 C 393.769531 263.488281 396.507812 260.871094 399.246094 258.257812 C 400.15625 257.390625 401.0625 256.519531 401.972656 255.652344 C 391.359375 257.503906 380.429688 257.859375 369.695312 256.710938 C 371.3125 258.804688 372.960938 260.871094 374.632812 262.929688 C 369.929688 267.421875 365.226562 271.917969 360.523438 276.410156 C 356.792969 279.976562 353.0625 283.539062 349.328125 287.105469 C 348.199219 288.183594 347.414062 289.367188 347.566406 291.011719 C 347.566406 291.023438 347.570312 291.035156 347.570312 291.042969 C 347.429688 291.714844 347.503906 292.433594 347.8125 293.011719 C 348.148438 293.632812 348.761719 294.148438 349.445312 294.546875 C 349.625 294.71875 349.808594 294.878906 350 295.019531 C 352.535156 296.886719 357.519531 298.121094 360.160156 295.597656 C 367.890625 288.210938 375.625 280.824219 383.355469 273.4375 C 387.332031 278.179688 391.328125 282.910156 395.363281 287.605469 C 396.871094 289.359375 398.382812 291.109375 399.914062 292.839844 C 399.9375 292.878906 399.972656 292.917969 400.015625 292.953125 C 400.644531 293.664062 401.269531 294.386719 401.914062 295.089844 C 403.023438 296.300781 405.109375 296.285156 406.765625 295.871094 C 408.578125 295.941406 410.90625 295.261719 412.289062 294.324219 C 413.015625 294.304688 413.746094 294.21875 414.085938 293.894531 C 420.984375 287.304688 427.882812 280.710938 434.78125 274.121094 C 439.035156 279.15625 443.355469 284.128906 447.636719 289.109375 C 449.796875 291.625 451.949219 294.148438 454.1875 296.59375 C 454.578125 297.023438 456.035156 296.9375 456.464844 296.914062 C 456.609375 296.910156 456.757812 296.890625 456.90625 296.878906 C 456.917969 296.890625 456.929688 296.90625 456.941406 296.917969 C 459.015625 299.183594 467.679688 296.15625 465.453125 293.71875 Z M 465.453125 293.71875 " fill-opacity="1" fill-rule="nonzero"/><g clip-path="url(#8c828e8b3c)"><path fill="#efdfb9" d="M 55.496094 228.117188 C 64.246094 230.5625 72.558594 234.878906 81.730469 235.089844 C 95.136719 235.398438 106.882812 226.917969 120.175781 225.347656 C 137.492188 223.304688 153.890625 233.167969 171.339844 233.894531 C 193.582031 234.820312 213.972656 220.890625 236.234375 221.492188 C 256.207031 222.03125 275.144531 234.269531 294.722656 230.722656 C 307.226562 228.457031 317.476562 220.019531 330.011719 217.886719 C 345.761719 215.207031 361.140625 222.902344 376.910156 225.484375 C 388.140625 227.324219 399.910156 226.515625 410.6875 223.167969 C 416.949219 221.222656 422.929688 218.425781 429.464844 217.421875 C 450.414062 214.203125 474.882812 229.007812 494.359375 221.449219 L 495.203125 225.355469 C 488.003906 188.710938 480.859375 138.183594 480.882812 138.183594 L 425.417969 75.667969 L 103.777344 75.667969 C 83.050781 91.898438 50.140625 118.039062 32.335938 133.789062 C 28.945312 149.238281 24.125 228.152344 23.773438 247.058594 C 23.773438 247.195312 23.769531 247.359375 23.761719 247.523438 L 24.269531 233.894531 C 29.820312 227.421875 46.746094 225.675781 55.496094 228.117188 Z M 220.652344 197.679688 C 227.605469 195.398438 234.496094 192.925781 241.3125 190.257812 C 265.042969 180.960938 287.839844 169.304688 309.207031 155.410156 C 309.757812 155.054688 310.265625 155.929688 309.71875 156.285156 C 303.707031 160.195312 297.585938 163.929688 291.355469 167.484375 C 269.011719 180.230469 245.355469 190.632812 220.921875 198.65625 C 220.300781 198.863281 220.035156 197.882812 220.652344 197.679688 Z M 300.558594 173.6875 C 282.945312 182.6875 264.753906 190.539062 246.136719 197.230469 C 245.519531 197.453125 245.257812 196.472656 245.867188 196.253906 C 264.402344 189.59375 282.507812 181.773438 300.046875 172.8125 C 300.628906 172.515625 301.140625 173.390625 300.558594 173.6875 Z M 29.757812 225.359375 C 31.601562 223.308594 33.894531 221.859375 36.492188 220.949219 C 51.277344 215.773438 64.917969 226.527344 79.25 227.957031 C 95.136719 229.542969 108.753906 218.289062 124.488281 218.097656 C 140.46875 217.902344 155.082031 226.113281 170.941406 226.898438 C 186.941406 227.6875 201.855469 220.765625 217.070312 216.96875 C 224.347656 215.15625 231.828125 214.054688 239.335938 214.691406 C 246.9375 215.332031 254.304688 217.433594 261.609375 219.507812 C 269.210938 221.671875 276.914062 223.917969 284.851562 224.324219 C 293.066406 224.742188 300.570312 222.582031 307.992188 219.242188 C 314.648438 216.25 321.183594 212.734375 328.386719 211.214844 C 336.222656 209.558594 344.234375 210.570312 351.949219 212.363281 C 360.203125 214.277344 368.261719 217.039062 376.632812 218.453125 C 385.527344 219.960938 394.722656 219.792969 403.5625 217.996094 C 411.710938 216.339844 419.191406 212.53125 427.308594 210.832031 C 434.289062 209.371094 441.429688 210.078125 448.367188 211.457031 C 462.46875 214.265625 477.546875 220.636719 491.820312 215.300781 C 492.433594 215.070312 492.695312 216.050781 492.089844 216.277344 C 488.992188 217.433594 485.777344 218.105469 482.476562 218.3125 C 467.9375 219.214844 454.222656 212.457031 439.894531 211.214844 C 431.671875 210.5 424.3125 212.433594 416.636719 215.191406 C 408.851562 217.988281 400.980469 219.957031 392.6875 220.382812 C 384.347656 220.8125 376.171875 219.683594 368.097656 217.652344 C 359.839844 215.574219 351.6875 212.820312 343.207031 211.777344 C 334.894531 210.753906 327.066406 212.003906 319.359375 215.191406 C 312.414062 218.0625 305.824219 221.859375 298.542969 223.886719 C 283.621094 228.042969 268.859375 222.386719 254.523438 218.59375 C 246.769531 216.539062 238.882812 215.082031 230.832031 215.65625 C 223.035156 216.210938 215.453125 218.3125 208.007812 220.574219 C 193.457031 224.992188 179.105469 229.699219 163.726562 227.09375 C 148.039062 224.429688 132.742188 216.574219 116.519531 219.996094 C 108.96875 221.589844 101.964844 224.957031 94.59375 227.140625 C 87.273438 229.3125 80.085938 229.675781 72.664062 227.75 C 65.089844 225.78125 57.953125 222.15625 50.160156 221.039062 C 43.351562 220.0625 35.355469 220.648438 30.476562 226.078125 C 30.039062 226.5625 29.324219 225.84375 29.757812 225.359375 Z M 501.597656 253.164062 C 491.582031 250.257812 485.347656 248.589844 476.503906 251.207031 C 467.660156 253.824219 469.472656 256.421875 460.328125 254.871094 C 458.871094 254.625 457.453125 254.246094 456.054688 253.800781 C 452.269531 252.589844 448.652344 250.847656 444.882812 249.597656 C 443.246094 249.054688 441.578125 248.601562 439.855469 248.335938 C 435.996094 247.734375 432.160156 248.070312 428.347656 248.839844 C 424.617188 249.59375 420.914062 250.769531 417.238281 251.898438 C 416.074219 252.253906 414.910156 252.609375 413.753906 252.945312 C 409.890625 254.058594 405.953125 254.957031 401.972656 255.652344 C 391.359375 257.503906 380.429688 257.859375 369.695312 256.710938 C 364.222656 256.128906 358.796875 255.164062 353.492188 253.796875 C 348.523438 252.515625 343.601562 250.886719 338.449219 250.511719 C 325.203125 249.546875 313.179688 256.832031 300.636719 260.820312 C 288.964844 264.53125 276.226562 265.417969 264.074219 263.371094 C 252.148438 261.363281 240.699219 256.589844 228.570312 256.566406 C 212.316406 256.535156 197.289062 265.039062 181.054688 265.800781 C 168.28125 266.398438 155.96875 262.179688 143.582031 258.84375 C 140.414062 257.992188 137.242188 257.199219 134.054688 256.554688 C 132.144531 256.171875 130.226562 255.839844 128.304688 255.585938 C 124.554688 255.089844 120.777344 254.875 116.957031 255.105469 C 116.011719 255.164062 115.070312 255.25 114.132812 255.355469 C 105.730469 256.308594 97.496094 259.046875 89.230469 260.480469 C 84.5 261.300781 79.757812 261.695312 74.96875 261.066406 C 71.3125 260.582031 67.730469 259.515625 64.167969 258.410156 C 57.773438 256.433594 51.453125 254.351562 44.917969 255.363281 C 38.40625 256.371094 23.191406 259.292969 23.191406 259.292969 C 23.191406 259.292969 23.503906 253.859375 23.671875 249.964844 L 23.609375 251.6875 C 29.160156 245.214844 46.746094 244.625 55.496094 247.070312 C 64.246094 249.511719 72.558594 253.828125 81.730469 254.039062 C 95.136719 254.351562 106.882812 245.871094 120.175781 244.300781 C 137.492188 242.253906 153.890625 252.121094 171.339844 252.84375 C 193.582031 253.769531 213.972656 239.84375 236.234375 240.445312 C 256.207031 240.984375 275.144531 253.21875 294.722656 249.671875 C 307.226562 247.40625 317.476562 238.972656 330.011719 236.839844 C 345.761719 234.160156 361.140625 241.851562 376.910156 244.433594 C 388.140625 246.273438 399.910156 245.46875 410.6875 242.117188 C 416.949219 240.171875 422.929688 237.375 429.464844 236.371094 C 450.414062 233.152344 478.871094 247.925781 498.347656 240.367188 L 498.335938 240.3125 C 499.457031 245.269531 500.554688 249.640625 501.597656 253.164062 Z M 501.597656 253.164062 " fill-opacity="1" fill-rule="nonzero"/></g><g clip-path="url(#c162678d99)"><path fill="#91c4c8" d="M 498.335938 240.3125 L 498.023438 238.425781 L 495.203125 225.355469 L 494.359375 221.449219 C 474.882812 229.007812 450.414062 214.203125 429.464844 217.421875 C 422.929688 218.425781 416.949219 221.222656 410.6875 223.167969 C 399.910156 226.515625 388.140625 227.324219 376.910156 225.484375 C 361.140625 222.902344 345.761719 215.207031 330.011719 217.886719 C 317.476562 220.019531 307.226562 228.457031 294.722656 230.722656 C 275.144531 234.269531 256.207031 222.03125 236.234375 221.492188 C 213.972656 220.890625 193.582031 234.820312 171.339844 233.894531 C 153.890625 233.167969 137.492188 223.304688 120.175781 225.347656 C 106.882812 226.917969 95.136719 235.398438 81.730469 235.089844 C 72.558594 234.878906 64.246094 230.5625 55.496094 228.117188 C 46.746094 225.675781 29.820312 227.421875 24.269531 233.894531 L 23.761719 247.523438 L 23.671875 249.964844 L 23.609375 251.6875 C 29.160156 245.214844 46.746094 244.625 55.496094 247.070312 C 64.246094 249.511719 72.558594 253.828125 81.730469 254.039062 C 95.136719 254.351562 106.882812 245.871094 120.175781 244.300781 C 137.492188 242.253906 153.890625 252.121094 171.339844 252.84375 C 193.582031 253.769531 213.972656 239.84375 236.234375 240.445312 C 256.207031 240.984375 275.144531 253.21875 294.722656 249.671875 C 307.226562 247.40625 317.476562 238.972656 330.011719 236.839844 C 345.761719 234.160156 361.140625 241.851562 376.910156 244.433594 C 388.140625 246.273438 399.910156 245.46875 410.6875 242.117188 C 416.949219 240.171875 422.929688 237.375 429.464844 236.371094 C 450.414062 233.152344 478.871094 247.925781 498.347656 240.367188 Z M 36.8125 236.234375 C 34.980469 238.390625 33.65625 240.925781 32.957031 243.660156 C 32.808594 244.234375 32.171875 244.578125 31.609375 244.421875 C 31.035156 244.265625 30.699219 243.652344 30.847656 243.078125 C 31.640625 239.96875 33.195312 237.128906 35.265625 234.6875 C 35.648438 234.234375 36.421875 234.296875 36.8125 234.6875 C 37.253906 235.128906 37.195312 235.78125 36.8125 236.234375 Z M 48.578125 234.703125 C 46.945312 236.890625 45.496094 239.355469 44.472656 241.816406 C 44.246094 242.367188 43.757812 242.753906 43.128906 242.582031 C 42.609375 242.4375 42.140625 241.78125 42.367188 241.238281 C 43.496094 238.519531 44.929688 235.960938 46.6875 233.601562 C 47.042969 233.125 47.628906 232.882812 48.183594 233.207031 C 48.65625 233.480469 48.929688 234.230469 48.578125 234.703125 Z M 60.140625 235.195312 C 58.875 237.644531 57.613281 240.089844 56.351562 242.535156 C 56.078125 243.0625 55.34375 243.214844 54.855469 242.929688 C 54.328125 242.621094 54.191406 241.957031 54.460938 241.433594 C 55.726562 238.988281 56.988281 236.539062 58.25 234.09375 C 58.523438 233.566406 59.257812 233.414062 59.746094 233.703125 C 60.273438 234.011719 60.410156 234.671875 60.140625 235.195312 Z M 69.820312 236.886719 C 68.65625 239.742188 67.1875 242.445312 65.390625 244.953125 C 65.046875 245.433594 64.445312 245.667969 63.898438 245.34375 C 63.421875 245.066406 63.160156 244.332031 63.503906 243.851562 C 65.179688 241.507812 66.625 238.96875 67.710938 236.304688 C 67.933594 235.757812 68.429688 235.371094 69.054688 235.542969 C 69.578125 235.6875 70.042969 236.339844 69.820312 236.886719 Z M 78.8125 239.21875 C 77.652344 242.074219 76.179688 244.777344 74.386719 247.285156 C 74.042969 247.765625 73.441406 248 72.890625 247.679688 C 72.414062 247.398438 72.15625 246.664062 72.5 246.183594 C 74.175781 243.839844 75.621094 241.300781 76.707031 238.636719 C 76.929688 238.089844 77.425781 237.703125 78.050781 237.875 C 78.570312 238.019531 79.035156 238.671875 78.8125 239.21875 Z M 90.519531 239.027344 C 89.355469 241.882812 87.886719 244.585938 86.089844 247.09375 C 85.746094 247.578125 85.144531 247.808594 84.59375 247.488281 C 84.117188 247.207031 83.859375 246.472656 84.203125 245.992188 C 85.878906 243.648438 87.324219 241.113281 88.410156 238.449219 C 88.632812 237.898438 89.128906 237.511719 89.753906 237.683594 C 90.277344 237.828125 90.742188 238.480469 90.519531 239.027344 Z M 101.6875 236.839844 C 100.523438 239.695312 99.054688 242.398438 97.257812 244.90625 C 96.914062 245.386719 96.3125 245.621094 95.761719 245.296875 C 95.285156 245.019531 95.027344 244.285156 95.371094 243.804688 C 97.046875 241.460938 98.492188 238.921875 99.578125 236.257812 C 99.800781 235.710938 100.296875 235.324219 100.921875 235.496094 C 101.445312 235.640625 101.910156 236.292969 101.6875 236.839844 Z M 115.746094 234.390625 C 113.914062 236.550781 112.589844 239.082031 111.890625 241.820312 C 111.742188 242.394531 111.109375 242.738281 110.542969 242.582031 C 109.96875 242.425781 109.632812 241.808594 109.78125 241.238281 C 110.578125 238.128906 112.128906 235.285156 114.199219 232.847656 C 114.585938 232.394531 115.355469 232.453125 115.746094 232.847656 C 116.1875 233.289062 116.128906 233.941406 115.746094 234.390625 Z M 127.511719 232.863281 C 125.878906 235.050781 124.433594 237.515625 123.410156 239.976562 C 123.179688 240.523438 122.691406 240.914062 122.0625 240.742188 C 121.542969 240.597656 121.074219 239.941406 121.300781 239.394531 C 122.429688 236.679688 123.863281 234.121094 125.625 231.757812 C 125.976562 231.285156 126.5625 231.039062 127.117188 231.367188 C 127.589844 231.640625 127.863281 232.386719 127.511719 232.863281 Z M 139.074219 233.355469 C 137.8125 235.800781 136.546875 238.25 135.285156 240.695312 C 135.011719 241.222656 134.277344 241.375 133.789062 241.085938 C 133.261719 240.777344 133.125 240.117188 133.398438 239.59375 C 134.660156 237.144531 135.921875 234.699219 137.183594 232.253906 C 137.457031 231.726562 138.191406 231.574219 138.679688 231.859375 C 139.210938 232.167969 139.34375 232.832031 139.074219 233.355469 Z M 152.683594 236.804688 C 152.011719 237.753906 151.40625 238.742188 150.878906 239.777344 C 150.746094 240.042969 150.617188 240.308594 150.492188 240.582031 C 150.445312 240.679688 150.402344 240.78125 150.355469 240.882812 C 150.328125 240.949219 150.296875 241.011719 150.269531 241.078125 C 150.261719 241.097656 150.261719 241.101562 150.25 241.132812 C 150.027344 241.679688 149.824219 242.230469 149.644531 242.792969 C 149.453125 243.375 148.894531 243.691406 148.296875 243.554688 C 147.738281 243.425781 147.359375 242.753906 147.535156 242.210938 C 148.28125 239.890625 149.382812 237.691406 150.796875 235.703125 C 151.152344 235.203125 151.730469 235.015625 152.292969 235.3125 C 152.78125 235.570312 153.019531 236.339844 152.683594 236.804688 Z M 165.953125 237.402344 C 164.386719 239.816406 163.039062 242.375 161.988281 245.054688 C 161.769531 245.609375 161.261719 245.988281 160.640625 245.820312 C 160.113281 245.675781 159.664062 245.023438 159.878906 244.476562 C 161 241.617188 162.394531 238.878906 164.066406 236.300781 C 164.386719 235.804688 165.03125 235.597656 165.5625 235.910156 C 166.054688 236.195312 166.273438 236.910156 165.953125 237.402344 Z M 177.949219 238.34375 C 176.253906 241.75 174.558594 245.15625 172.863281 248.5625 C 172.601562 249.09375 171.851562 249.238281 171.367188 248.957031 C 170.835938 248.644531 170.714844 247.988281 170.976562 247.460938 C 172.671875 244.054688 174.363281 240.648438 176.058594 237.238281 C 176.324219 236.710938 177.070312 236.566406 177.554688 236.847656 C 178.089844 237.160156 178.210938 237.816406 177.949219 238.34375 Z M 189.738281 237.222656 C 189.054688 240.070312 187.902344 242.804688 186.375 245.304688 C 186.066406 245.808594 185.398438 246 184.878906 245.695312 C 184.375 245.402344 184.179688 244.703125 184.484375 244.199219 C 185.921875 241.851562 186.984375 239.320312 187.632812 236.644531 C 187.769531 236.066406 188.421875 235.726562 188.976562 235.878906 C 189.558594 236.039062 189.878906 236.652344 189.738281 237.222656 Z M 203.480469 233.253906 C 202.152344 236.203125 200.824219 239.152344 199.496094 242.105469 C 199.25 242.644531 198.46875 242.769531 198 242.496094 C 197.453125 242.175781 197.363281 241.539062 197.605469 241 C 198.933594 238.050781 200.261719 235.101562 201.589844 232.152344 C 201.835938 231.609375 202.621094 231.484375 203.085938 231.757812 C 203.632812 232.078125 203.722656 232.71875 203.480469 233.253906 Z M 220.332031 228.691406 C 218.335938 231.769531 216.675781 235.054688 215.4375 238.511719 C 215.238281 239.070312 214.699219 239.441406 214.09375 239.273438 C 213.554688 239.125 213.132812 238.484375 213.328125 237.929688 C 214.632812 234.296875 216.347656 230.828125 218.445312 227.589844 C 219.207031 226.410156 221.101562 227.507812 220.332031 228.691406 Z M 225.839844 235.804688 C 225.4375 236.265625 224.707031 236.183594 224.292969 235.804688 C 223.839844 235.390625 223.917969 234.6875 224.292969 234.261719 C 225.035156 233.421875 225.6875 232.421875 226.191406 231.296875 C 226.222656 231.226562 226.253906 231.160156 226.285156 231.089844 C 226.246094 231.175781 226.253906 231.15625 226.300781 231.035156 C 226.355469 230.894531 226.410156 230.753906 226.460938 230.609375 C 226.5625 230.328125 226.648438 230.039062 226.726562 229.75 C 226.804688 229.460938 226.871094 229.167969 226.925781 228.875 C 226.953125 228.726562 226.976562 228.578125 227 228.429688 C 226.972656 228.621094 227.023438 228.203125 227.027344 228.167969 C 227.085938 227.554688 227.480469 227.101562 228.121094 227.074219 C 228.667969 227.046875 229.269531 227.59375 229.210938 228.167969 C 228.929688 231.027344 227.738281 233.648438 225.839844 235.804688 Z M 238.976562 227.6875 C 237.304688 229.867188 236.164062 232.238281 235.585938 234.902344 C 235.460938 235.480469 234.789062 235.816406 234.242188 235.664062 C 233.648438 235.503906 233.351562 234.898438 233.476562 234.320312 C 234.085938 231.515625 235.347656 228.859375 237.089844 226.585938 C 237.449219 226.113281 238.023438 225.863281 238.585938 226.191406 C 239.050781 226.464844 239.335938 227.21875 238.976562 227.6875 Z M 248.496094 228.226562 C 247.699219 229.261719 246.988281 230.355469 246.378906 231.507812 C 245.765625 232.664062 245.347656 233.65625 244.949219 234.898438 C 244.765625 235.480469 244.203125 235.796875 243.605469 235.660156 C 243.046875 235.535156 242.667969 234.863281 242.84375 234.316406 C 243.675781 231.722656 244.949219 229.285156 246.605469 227.125 C 246.980469 226.636719 247.523438 226.425781 248.101562 226.730469 C 248.578125 226.984375 248.84375 227.773438 248.496094 228.226562 Z M 256.183594 236.828125 C 255.96875 237.402344 255.457031 237.734375 254.839844 237.59375 C 254.296875 237.46875 253.875 236.785156 254.074219 236.25 C 254.464844 235.203125 254.796875 234.140625 255.066406 233.0625 C 255.195312 232.542969 255.308594 232.023438 255.410156 231.496094 C 255.460938 231.214844 255.511719 230.933594 255.554688 230.648438 C 255.605469 230.328125 255.621094 230.21875 255.652344 229.96875 C 255.730469 229.359375 256.09375 228.902344 256.746094 228.875 C 257.285156 228.851562 257.914062 229.398438 257.839844 229.96875 C 257.546875 232.316406 257.011719 234.609375 256.183594 236.828125 Z M 271.179688 233.085938 C 270.28125 235.929688 268.847656 238.53125 267 240.867188 C 266.632812 241.332031 265.835938 241.246094 265.457031 240.867188 C 265.003906 240.414062 265.089844 239.785156 265.457031 239.320312 C 267.035156 237.320312 268.304688 234.929688 269.074219 232.507812 C 269.257812 231.921875 269.820312 231.605469 270.417969 231.742188 C 270.980469 231.871094 271.355469 232.542969 271.179688 233.085938 Z M 284.734375 236.414062 C 283.289062 238.730469 281.996094 241.167969 280.9375 243.679688 C 280.707031 244.226562 280.226562 244.617188 279.59375 244.445312 C 279.078125 244.300781 278.601562 243.644531 278.828125 243.097656 C 279.964844 240.398438 281.292969 237.796875 282.847656 235.3125 C 283.160156 234.808594 283.816406 234.613281 284.339844 234.917969 C 284.839844 235.210938 285.046875 235.914062 284.734375 236.414062 Z M 296.984375 235.152344 C 295.425781 238.390625 293.867188 241.628906 292.3125 244.867188 C 292.054688 245.402344 291.292969 245.539062 290.816406 245.261719 C 290.277344 244.945312 290.167969 244.296875 290.421875 243.765625 C 291.980469 240.527344 293.539062 237.289062 295.09375 234.050781 C 295.351562 233.515625 296.113281 233.378906 296.589844 233.660156 C 297.128906 233.972656 297.238281 234.621094 296.984375 235.152344 Z M 312.347656 231.832031 C 312.171875 232.25 312 232.667969 311.824219 233.085938 C 311.824219 233.09375 311.820312 233.097656 311.816406 233.101562 C 310.804688 235.511719 309.820312 237.9375 308.867188 240.371094 C 308.648438 240.925781 308.140625 241.304688 307.519531 241.136719 C 306.992188 240.992188 306.542969 240.339844 306.757812 239.792969 C 307.734375 237.296875 308.746094 234.820312 309.78125 232.351562 C 309.933594 231.984375 310.085938 231.617188 310.238281 231.25 C 310.277344 231.164062 310.3125 231.078125 310.347656 230.988281 C 310.5625 230.484375 311.261719 230.363281 311.714844 230.542969 C 312.164062 230.722656 312.550781 231.335938 312.347656 231.832031 Z M 323.875 226.023438 C 322.171875 229.5 320.617188 233.042969 319.222656 236.652344 C 319.007812 237.203125 318.496094 237.585938 317.878906 237.414062 C 317.347656 237.269531 316.902344 236.621094 317.113281 236.070312 C 318.578125 232.285156 320.203125 228.5625 321.988281 224.917969 C 322.25 224.386719 323.003906 224.246094 323.484375 224.527344 C 324.019531 224.839844 324.136719 225.492188 323.875 226.023438 Z M 337.316406 224.164062 C 337.144531 224.582031 336.972656 225 336.796875 225.417969 C 336.796875 225.425781 336.792969 225.429688 336.789062 225.433594 C 335.777344 227.847656 334.789062 230.269531 333.835938 232.703125 C 333.621094 233.257812 333.113281 233.636719 332.492188 233.46875 C 331.964844 233.324219 331.515625 232.671875 331.730469 232.125 C 332.707031 229.621094 333.726562 227.136719 334.761719 224.660156 C 334.914062 224.300781 335.0625 223.941406 335.210938 223.582031 C 335.210938 223.582031 335.210938 223.582031 335.210938 223.585938 C 335.246094 223.496094 335.28125 223.410156 335.320312 223.324219 C 335.488281 222.921875 335.960938 222.769531 336.371094 222.808594 C 336.480469 222.820312 336.589844 222.835938 336.683594 222.875 C 336.898438 222.960938 337.09375 223.148438 337.222656 223.371094 C 337.367188 223.617188 337.425781 223.90625 337.316406 224.164062 Z M 349.042969 223.78125 C 348.25 225.398438 347.492188 227.03125 346.765625 228.679688 C 346.125 230.125 345.515625 231.585938 344.929688 233.054688 C 344.75 233.507812 344.5625 233.957031 344.386719 234.414062 C 344.175781 234.964844 343.660156 235.34375 343.042969 235.175781 C 342.515625 235.03125 342.066406 234.382812 342.28125 233.832031 C 343.742188 230.046875 345.367188 226.324219 347.15625 222.679688 C 347.273438 222.4375 347.5 222.289062 347.75 222.210938 C 348.046875 222.117188 348.386719 222.132812 348.648438 222.289062 C 348.996094 222.492188 349.152344 222.839844 349.15625 223.199219 C 349.160156 223.398438 349.132812 223.597656 349.042969 223.78125 Z M 363.425781 226.683594 C 361.824219 229.429688 360.386719 232.265625 359.128906 235.179688 C 358.890625 235.726562 358.09375 235.84375 357.632812 235.574219 C 357.078125 235.25 357.003906 234.617188 357.238281 234.078125 C 358.5 231.160156 359.9375 228.328125 361.535156 225.582031 C 362.246094 224.367188 364.132812 225.46875 363.425781 226.683594 Z M 373.792969 228.433594 C 372.710938 231.191406 371.625 233.953125 370.539062 236.714844 C 370.324219 237.265625 369.816406 237.648438 369.195312 237.476562 C 368.667969 237.332031 368.214844 236.683594 368.433594 236.132812 C 369.515625 233.371094 370.601562 230.613281 371.683594 227.851562 C 371.902344 227.300781 372.410156 226.917969 373.03125 227.085938 C 373.558594 227.230469 374.007812 227.882812 373.792969 228.433594 Z M 386.597656 232.222656 C 385.589844 234.644531 384.582031 237.0625 383.570312 239.480469 C 383.335938 240.050781 382.867188 240.390625 382.226562 240.246094 C 381.703125 240.125 381.242188 239.429688 381.464844 238.902344 C 382.472656 236.480469 383.480469 234.0625 384.492188 231.644531 C 384.726562 231.074219 385.195312 230.734375 385.835938 230.878906 C 386.359375 231 386.820312 231.695312 386.597656 232.222656 Z M 400.585938 230.636719 C 399.351562 233.613281 398.121094 236.59375 396.886719 239.574219 C 396.660156 240.121094 396.171875 240.507812 395.542969 240.335938 C 395.023438 240.191406 394.554688 239.535156 394.78125 238.992188 C 396.011719 236.011719 397.246094 233.035156 398.476562 230.054688 C 398.703125 229.507812 399.195312 229.117188 399.820312 229.292969 C 400.339844 229.433594 400.8125 230.089844 400.585938 230.636719 Z M 412.851562 227.953125 C 412.007812 230.578125 411.160156 233.203125 410.316406 235.828125 C 410.132812 236.394531 409.5625 236.753906 408.96875 236.59375 C 408.417969 236.441406 408.027344 235.808594 408.207031 235.25 C 409.050781 232.625 409.898438 230 410.742188 227.371094 C 410.925781 226.808594 411.496094 226.445312 412.089844 226.609375 C 412.640625 226.761719 413.03125 227.390625 412.851562 227.953125 Z M 424.367188 225.164062 C 423.132812 228.140625 421.902344 231.121094 420.667969 234.097656 C 420.441406 234.644531 419.953125 235.035156 419.324219 234.863281 C 418.804688 234.71875 418.335938 234.0625 418.5625 233.519531 C 419.070312 232.289062 419.578125 231.058594 420.085938 229.828125 C 420.8125 228.078125 421.535156 226.332031 422.257812 224.582031 C 422.386719 224.277344 422.601562 224.03125 422.867188 223.894531 C 423.082031 223.789062 423.324219 223.742188 423.601562 223.816406 C 424.121094 223.960938 424.59375 224.617188 424.367188 225.164062 Z M 436.632812 222.480469 C 435.789062 225.105469 434.941406 227.730469 434.097656 230.355469 C 434.015625 230.605469 433.851562 230.808594 433.648438 230.949219 C 433.394531 231.128906 433.078125 231.210938 432.75 231.121094 C 432.703125 231.105469 432.660156 231.070312 432.613281 231.046875 C 432.140625 230.835938 431.824219 230.285156 431.988281 229.773438 C 432.832031 227.148438 433.679688 224.523438 434.523438 221.898438 C 434.707031 221.335938 435.277344 220.972656 435.871094 221.136719 C 436.421875 221.289062 436.8125 221.917969 436.632812 222.480469 Z M 444.789062 233.382812 C 444.582031 233.9375 444.058594 234.316406 443.445312 234.148438 C 442.914062 234 442.472656 233.355469 442.683594 232.800781 C 443.828125 229.75 444.972656 226.699219 446.117188 223.648438 C 446.328125 223.09375 446.851562 222.71875 447.464844 222.886719 C 447.902344 223.003906 448.269531 223.464844 448.273438 223.929688 C 448.273438 224.03125 448.265625 224.132812 448.226562 224.230469 C 447.789062 225.402344 447.347656 226.570312 446.910156 227.742188 C 446.605469 228.546875 446.304688 229.347656 446.003906 230.148438 C 445.832031 230.605469 445.664062 231.058594 445.492188 231.511719 C 445.257812 232.136719 445.023438 232.757812 444.789062 233.382812 Z M 461.371094 226.105469 C 460.222656 229.15625 459.078125 232.207031 457.933594 235.261719 C 457.722656 235.816406 457.199219 236.191406 456.585938 236.023438 C 456.054688 235.875 455.617188 235.230469 455.824219 234.679688 C 456.96875 231.628906 458.113281 228.578125 459.261719 225.523438 C 459.46875 224.96875 459.992188 224.59375 460.605469 224.761719 C 461.136719 224.910156 461.578125 225.554688 461.371094 226.105469 Z M 473.769531 228.851562 C 472.820312 231.957031 471.871094 235.0625 470.925781 238.164062 C 470.515625 239.507812 468.40625 238.933594 468.816406 237.585938 C 469.765625 234.480469 470.710938 231.375 471.660156 228.273438 C 472.070312 226.929688 474.179688 227.503906 473.769531 228.851562 Z M 486.394531 228.53125 C 484.792969 232.207031 483.597656 236.054688 482.796875 239.984375 C 482.511719 241.363281 480.40625 240.777344 480.6875 239.402344 C 481.527344 235.28125 482.828125 231.285156 484.507812 227.429688 C 484.742188 226.882812 485.539062 226.765625 486.003906 227.035156 C 486.554688 227.359375 486.628906 227.992188 486.394531 228.53125 Z M 29.757812 225.359375 C 31.601562 223.308594 33.894531 221.859375 36.492188 220.949219 C 51.277344 215.773438 64.917969 226.527344 79.25 227.957031 C 95.136719 229.542969 108.753906 218.289062 124.488281 218.097656 C 140.46875 217.902344 155.082031 226.113281 170.941406 226.898438 C 186.941406 227.6875 201.855469 220.765625 217.070312 216.96875 C 224.347656 215.15625 231.828125 214.054688 239.335938 214.691406 C 246.9375 215.332031 254.304688 217.433594 261.609375 219.507812 C 269.210938 221.671875 276.914062 223.917969 284.851562 224.324219 C 293.066406 224.742188 300.570312 222.582031 307.992188 219.242188 C 314.648438 216.25 321.183594 212.734375 328.386719 211.214844 C 336.222656 209.558594 344.234375 210.570312 351.949219 212.363281 C 360.203125 214.277344 368.261719 217.039062 376.632812 218.453125 C 385.527344 219.960938 394.722656 219.792969 403.5625 217.996094 C 411.710938 216.339844 419.191406 212.53125 427.308594 210.832031 C 434.289062 209.371094 441.429688 210.078125 448.367188 211.457031 C 462.46875 214.265625 477.546875 220.636719 491.820312 215.300781 C 492.433594 215.070312 492.695312 216.050781 492.089844 216.277344 C 488.992188 217.433594 485.777344 218.105469 482.476562 218.3125 C 467.9375 219.214844 454.222656 212.457031 439.894531 211.214844 C 431.671875 210.5 424.3125 212.433594 416.636719 215.191406 C 408.851562 217.988281 400.980469 219.957031 392.6875 220.382812 C 384.347656 220.8125 376.171875 219.683594 368.097656 217.652344 C 359.839844 215.574219 351.6875 212.820312 343.207031 211.777344 C 334.894531 210.753906 327.066406 212.003906 319.359375 215.191406 C 312.414062 218.0625 305.824219 221.859375 298.542969 223.886719 C 283.621094 228.042969 268.859375 222.386719 254.523438 218.59375 C 246.769531 216.539062 238.882812 215.082031 230.832031 215.65625 C 223.035156 216.210938 215.453125 218.3125 208.007812 220.574219 C 193.457031 224.992188 179.105469 229.699219 163.726562 227.09375 C 148.039062 224.429688 132.742188 216.574219 116.519531 219.996094 C 108.96875 221.589844 101.964844 224.957031 94.59375 227.140625 C 87.273438 229.3125 80.085938 229.675781 72.664062 227.75 C 65.089844 225.78125 57.953125 222.15625 50.160156 221.039062 C 43.351562 220.0625 35.355469 220.648438 30.476562 226.078125 C 30.039062 226.5625 29.324219 225.84375 29.757812 225.359375 Z M 220.652344 197.679688 C 227.605469 195.398438 234.496094 192.925781 241.3125 190.257812 C 265.042969 180.960938 287.839844 169.304688 309.207031 155.410156 C 309.757812 155.054688 310.265625 155.929688 309.71875 156.285156 C 303.707031 160.195312 297.585938 163.929688 291.355469 167.484375 C 269.011719 180.230469 245.355469 190.632812 220.921875 198.65625 C 220.300781 198.863281 220.035156 197.882812 220.652344 197.679688 Z M 300.558594 173.6875 C 282.945312 182.6875 264.753906 190.539062 246.136719 197.230469 C 245.519531 197.453125 245.257812 196.472656 245.867188 196.253906 C 264.402344 189.59375 282.507812 181.773438 300.046875 172.8125 C 300.628906 172.515625 301.140625 173.390625 300.558594 173.6875 Z M 300.558594 173.6875 " fill-opacity="1" fill-rule="nonzero"/></g><path fill="#ed985f" d="M 90.519531 239.027344 C 89.355469 241.882812 87.886719 244.585938 86.089844 247.09375 C 85.746094 247.578125 85.144531 247.808594 84.59375 247.488281 C 84.117188 247.207031 83.859375 246.472656 84.203125 245.992188 C 85.878906 243.648438 87.324219 241.113281 88.410156 238.449219 C 88.632812 237.898438 89.128906 237.511719 89.753906 237.683594 C 90.277344 237.828125 90.742188 238.480469 90.519531 239.027344 Z M 114.199219 232.847656 C 112.128906 235.285156 110.578125 238.128906 109.78125 241.238281 C 109.632812 241.808594 109.96875 242.425781 110.542969 242.582031 C 111.109375 242.738281 111.742188 242.394531 111.890625 241.820312 C 112.589844 239.082031 113.914062 236.550781 115.746094 234.390625 C 116.128906 233.941406 116.1875 233.289062 115.746094 232.847656 C 115.355469 232.453125 114.585938 232.394531 114.199219 232.847656 Z M 127.117188 231.367188 C 126.5625 231.039062 125.976562 231.285156 125.625 231.757812 C 123.863281 234.121094 122.429688 236.679688 121.300781 239.394531 C 121.074219 239.941406 121.542969 240.597656 122.0625 240.742188 C 122.691406 240.914062 123.179688 240.523438 123.410156 239.976562 C 124.433594 237.515625 125.878906 235.050781 127.511719 232.863281 C 127.863281 232.386719 127.589844 231.640625 127.117188 231.367188 Z M 138.679688 231.859375 C 138.191406 231.574219 137.457031 231.726562 137.183594 232.253906 C 135.921875 234.699219 134.660156 237.144531 133.398438 239.59375 C 133.125 240.117188 133.261719 240.777344 133.789062 241.085938 C 134.277344 241.375 135.011719 241.222656 135.285156 240.695312 C 136.546875 238.25 137.8125 235.800781 139.074219 233.355469 C 139.34375 232.832031 139.210938 232.167969 138.679688 231.859375 Z M 152.292969 235.3125 C 151.730469 235.015625 151.152344 235.203125 150.796875 235.703125 C 149.382812 237.691406 148.28125 239.890625 147.535156 242.210938 C 147.359375 242.753906 147.738281 243.425781 148.296875 243.554688 C 148.894531 243.691406 149.453125 243.375 149.644531 242.792969 C 149.824219 242.230469 150.027344 241.679688 150.25 241.132812 C 150.261719 241.101562 150.261719 241.097656 150.269531 241.078125 C 150.296875 241.011719 150.328125 240.949219 150.355469 240.882812 C 150.398438 240.78125 150.445312 240.679688 150.492188 240.582031 C 150.617188 240.308594 150.746094 240.042969 150.878906 239.777344 C 151.40625 238.742188 152.011719 237.753906 152.683594 236.804688 C 153.019531 236.339844 152.78125 235.570312 152.292969 235.3125 Z M 165.5625 235.910156 C 165.03125 235.597656 164.386719 235.804688 164.066406 236.300781 C 162.394531 238.878906 161 241.617188 159.878906 244.476562 C 159.664062 245.023438 160.113281 245.675781 160.640625 245.820312 C 161.261719 245.988281 161.769531 245.609375 161.988281 245.054688 C 163.039062 242.375 164.386719 239.816406 165.953125 237.402344 C 166.273438 236.910156 166.054688 236.195312 165.5625 235.910156 Z M 177.554688 236.847656 C 177.070312 236.566406 176.324219 236.710938 176.058594 237.238281 C 174.363281 240.648438 172.671875 244.054688 170.976562 247.460938 C 170.714844 247.988281 170.835938 248.644531 171.367188 248.957031 C 171.851562 249.238281 172.601562 249.09375 172.863281 248.5625 C 174.558594 245.15625 176.253906 241.75 177.949219 238.34375 C 178.210938 237.816406 178.089844 237.160156 177.554688 236.847656 Z M 188.976562 235.878906 C 188.421875 235.726562 187.769531 236.066406 187.632812 236.644531 C 186.984375 239.320312 185.921875 241.851562 184.484375 244.199219 C 184.179688 244.703125 184.375 245.402344 184.878906 245.695312 C 185.398438 246 186.066406 245.808594 186.375 245.304688 C 187.902344 242.804688 189.054688 240.070312 189.738281 237.222656 C 189.878906 236.652344 189.558594 236.039062 188.976562 235.878906 Z M 203.085938 231.757812 C 202.621094 231.484375 201.835938 231.609375 201.589844 232.152344 C 200.261719 235.101562 198.933594 238.050781 197.605469 241 C 197.363281 241.539062 197.453125 242.175781 198 242.496094 C 198.46875 242.769531 199.25 242.644531 199.496094 242.105469 C 200.824219 239.152344 202.152344 236.203125 203.480469 233.253906 C 203.722656 232.71875 203.632812 232.078125 203.085938 231.757812 Z M 218.445312 227.589844 C 216.347656 230.828125 214.632812 234.296875 213.328125 237.929688 C 213.132812 238.484375 213.554688 239.125 214.09375 239.273438 C 214.699219 239.441406 215.238281 239.070312 215.4375 238.511719 C 216.675781 235.054688 218.335938 231.769531 220.332031 228.691406 C 221.101562 227.507812 219.207031 226.410156 218.445312 227.589844 Z M 228.121094 227.074219 C 227.480469 227.101562 227.085938 227.554688 227.027344 228.167969 C 227.023438 228.203125 226.972656 228.621094 227 228.429688 C 226.976562 228.578125 226.953125 228.726562 226.925781 228.875 C 226.871094 229.167969 226.804688 229.460938 226.726562 229.75 C 226.648438 230.039062 226.5625 230.328125 226.460938 230.609375 C 226.410156 230.753906 226.355469 230.894531 226.300781 231.035156 C 226.253906 231.15625 226.246094 231.175781 226.285156 231.089844 C 226.253906 231.160156 226.222656 231.226562 226.191406 231.296875 C 225.6875 232.421875 225.035156 233.421875 224.292969 234.261719 C 223.917969 234.6875 223.839844 235.390625 224.292969 235.804688 C 224.707031 236.183594 225.4375 236.265625 225.839844 235.804688 C 227.738281 233.648438 228.929688 231.027344 229.210938 228.167969 C 229.269531 227.59375 228.667969 227.046875 228.121094 227.074219 Z M 238.585938 226.191406 C 238.023438 225.863281 237.449219 226.113281 237.089844 226.585938 C 235.347656 228.859375 234.085938 231.515625 233.476562 234.320312 C 233.351562 234.898438 233.648438 235.503906 234.242188 235.664062 C 234.789062 235.816406 235.460938 235.480469 235.585938 234.902344 C 236.164062 232.238281 237.304688 229.867188 238.976562 227.6875 C 239.335938 227.21875 239.050781 226.464844 238.585938 226.191406 Z M 248.101562 226.730469 C 247.523438 226.425781 246.980469 226.636719 246.605469 227.125 C 244.949219 229.285156 243.675781 231.722656 242.84375 234.316406 C 242.667969 234.863281 243.046875 235.535156 243.605469 235.660156 C 244.203125 235.796875 244.765625 235.480469 244.949219 234.898438 C 245.347656 233.65625 245.765625 232.664062 246.378906 231.507812 C 246.988281 230.355469 247.699219 229.261719 248.496094 228.226562 C 248.84375 227.773438 248.578125 226.984375 248.101562 226.730469 Z M 256.746094 228.875 C 256.09375 228.902344 255.730469 229.359375 255.652344 229.96875 C 255.621094 230.21875 255.605469 230.328125 255.554688 230.648438 C 255.511719 230.933594 255.460938 231.214844 255.410156 231.496094 C 255.308594 232.023438 255.195312 232.542969 255.066406 233.0625 C 254.796875 234.140625 254.464844 235.203125 254.074219 236.25 C 253.875 236.785156 254.296875 237.46875 254.839844 237.59375 C 255.457031 237.734375 255.96875 237.402344 256.183594 236.828125 C 257.011719 234.609375 257.546875 232.316406 257.839844 229.96875 C 257.914062 229.398438 257.285156 228.851562 256.746094 228.875 Z M 270.417969 231.742188 C 269.820312 231.605469 269.257812 231.921875 269.074219 232.507812 C 268.304688 234.929688 267.035156 237.320312 265.457031 239.320312 C 265.089844 239.785156 265.003906 240.414062 265.457031 240.867188 C 265.835938 241.246094 266.632812 241.332031 267 240.867188 C 268.847656 238.53125 270.28125 235.929688 271.179688 233.085938 C 271.355469 232.542969 270.980469 231.871094 270.417969 231.742188 Z M 284.339844 234.917969 C 283.816406 234.613281 283.160156 234.808594 282.847656 235.3125 C 281.292969 237.796875 279.964844 240.398438 278.828125 243.097656 C 278.601562 243.644531 279.078125 244.300781 279.59375 244.445312 C 280.226562 244.617188 280.707031 244.226562 280.9375 243.679688 C 281.996094 241.167969 283.289062 238.730469 284.734375 236.414062 C 285.046875 235.914062 284.839844 235.210938 284.339844 234.917969 Z M 296.589844 233.660156 C 296.113281 233.378906 295.351562 233.515625 295.09375 234.050781 C 293.539062 237.289062 291.980469 240.527344 290.421875 243.765625 C 290.167969 244.296875 290.277344 244.945312 290.816406 245.261719 C 291.292969 245.539062 292.054688 245.402344 292.3125 244.867188 C 293.867188 241.628906 295.425781 238.390625 296.984375 235.152344 C 297.238281 234.621094 297.128906 233.972656 296.589844 233.660156 Z M 311.714844 230.542969 C 311.261719 230.363281 310.5625 230.484375 310.347656 230.988281 C 310.3125 231.078125 310.277344 231.164062 310.238281 231.25 C 310.085938 231.617188 309.933594 231.984375 309.78125 232.351562 C 308.746094 234.820312 307.734375 237.296875 306.757812 239.792969 C 306.542969 240.339844 306.992188 240.992188 307.519531 241.136719 C 308.140625 241.304688 308.648438 240.925781 308.867188 240.371094 C 309.820312 237.9375 310.804688 235.511719 311.816406 233.101562 C 311.820312 233.097656 311.824219 233.09375 311.824219 233.085938 C 312 232.667969 312.171875 232.25 312.347656 231.832031 C 312.550781 231.335938 312.164062 230.722656 311.714844 230.542969 Z M 323.484375 224.527344 C 323.003906 224.246094 322.25 224.386719 321.988281 224.917969 C 320.203125 228.5625 318.578125 232.285156 317.113281 236.070312 C 316.902344 236.621094 317.347656 237.269531 317.878906 237.414062 C 318.496094 237.585938 319.007812 237.203125 319.222656 236.652344 C 320.617188 233.042969 322.171875 229.5 323.875 226.023438 C 324.136719 225.492188 324.019531 224.839844 323.484375 224.527344 Z M 361.535156 225.582031 C 359.9375 228.328125 358.5 231.160156 357.238281 234.078125 C 357.003906 234.617188 357.078125 235.25 357.632812 235.574219 C 358.09375 235.84375 358.890625 235.726562 359.128906 235.179688 C 360.386719 232.265625 361.824219 229.429688 363.425781 226.683594 C 364.132812 225.46875 362.246094 224.367188 361.535156 225.582031 Z M 373.03125 227.085938 C 372.410156 226.917969 371.902344 227.300781 371.683594 227.851562 C 370.601562 230.613281 369.515625 233.371094 368.433594 236.132812 C 368.214844 236.683594 368.667969 237.332031 369.195312 237.476562 C 369.816406 237.648438 370.324219 237.265625 370.539062 236.714844 C 371.625 233.953125 372.710938 231.191406 373.792969 228.433594 C 374.007812 227.882812 373.558594 227.230469 373.03125 227.085938 Z M 385.835938 230.878906 C 385.195312 230.734375 384.726562 231.074219 384.492188 231.644531 C 383.480469 234.0625 382.472656 236.480469 381.464844 238.902344 C 381.242188 239.429688 381.703125 240.125 382.226562 240.246094 C 382.867188 240.390625 383.335938 240.050781 383.570312 239.480469 C 384.582031 237.0625 385.589844 234.644531 386.597656 232.222656 C 386.820312 231.695312 386.359375 231 385.835938 230.878906 Z M 399.820312 229.292969 C 399.195312 229.117188 398.703125 229.507812 398.476562 230.054688 C 397.246094 233.035156 396.011719 236.011719 394.78125 238.992188 C 394.554688 239.535156 395.023438 240.191406 395.542969 240.335938 C 396.171875 240.507812 396.660156 240.121094 396.886719 239.574219 C 398.121094 236.59375 399.351562 233.613281 400.585938 230.636719 C 400.8125 230.089844 400.339844 229.433594 399.820312 229.292969 Z M 412.089844 226.609375 C 411.496094 226.445312 410.925781 226.808594 410.742188 227.371094 C 409.898438 230 409.050781 232.625 408.207031 235.25 C 408.027344 235.808594 408.417969 236.441406 408.96875 236.59375 C 409.5625 236.753906 410.132812 236.394531 410.316406 235.828125 C 411.160156 233.203125 412.007812 230.578125 412.851562 227.953125 C 413.03125 227.390625 412.640625 226.761719 412.089844 226.609375 Z M 460.605469 224.761719 C 459.992188 224.59375 459.46875 224.96875 459.261719 225.523438 C 458.113281 228.578125 456.96875 231.628906 455.824219 234.679688 C 455.617188 235.230469 456.054688 235.875 456.585938 236.023438 C 457.199219 236.191406 457.722656 235.816406 457.933594 235.261719 C 459.078125 232.207031 460.222656 229.15625 461.371094 226.105469 C 461.578125 225.554688 461.136719 224.910156 460.605469 224.761719 Z M 471.660156 228.273438 C 470.710938 231.375 469.765625 234.480469 468.816406 237.585938 C 468.40625 238.933594 470.515625 239.507812 470.925781 238.164062 C 471.871094 235.0625 472.820312 231.957031 473.769531 228.851562 C 474.179688 227.503906 472.070312 226.929688 471.660156 228.273438 Z M 486.003906 227.035156 C 485.539062 226.765625 484.742188 226.882812 484.507812 227.429688 C 482.828125 231.285156 481.527344 235.28125 480.6875 239.402344 C 480.40625 240.777344 482.511719 241.363281 482.796875 239.984375 C 483.597656 236.054688 484.792969 232.207031 486.394531 228.53125 C 486.628906 227.992188 486.554688 227.359375 486.003906 227.035156 Z M 35.265625 234.6875 C 33.195312 237.128906 31.640625 239.96875 30.847656 243.078125 C 30.699219 243.652344 31.035156 244.265625 31.609375 244.421875 C 32.171875 244.578125 32.808594 244.234375 32.957031 243.660156 C 33.65625 240.925781 34.980469 238.390625 36.8125 236.234375 C 37.195312 235.78125 37.253906 235.128906 36.8125 234.6875 C 36.421875 234.296875 35.648438 234.234375 35.265625 234.6875 Z M 48.183594 233.207031 C 47.628906 232.882812 47.042969 233.125 46.6875 233.601562 C 44.929688 235.960938 43.496094 238.519531 42.367188 241.238281 C 42.140625 241.78125 42.609375 242.4375 43.128906 242.582031 C 43.757812 242.753906 44.246094 242.367188 44.472656 241.816406 C 45.496094 239.355469 46.945312 236.890625 48.578125 234.703125 C 48.929688 234.230469 48.65625 233.480469 48.183594 233.207031 Z M 59.746094 233.703125 C 59.257812 233.414062 58.523438 233.566406 58.25 234.09375 C 56.988281 236.539062 55.726562 238.988281 54.460938 241.433594 C 54.191406 241.957031 54.328125 242.621094 54.855469 242.929688 C 55.34375 243.214844 56.078125 243.0625 56.351562 242.535156 C 57.613281 240.089844 58.875 237.644531 60.140625 235.195312 C 60.410156 234.671875 60.273438 234.011719 59.746094 233.703125 Z M 69.054688 235.542969 C 68.429688 235.371094 67.933594 235.757812 67.710938 236.304688 C 66.625 238.96875 65.179688 241.507812 63.503906 243.851562 C 63.160156 244.332031 63.421875 245.066406 63.898438 245.34375 C 64.445312 245.667969 65.046875 245.433594 65.390625 244.953125 C 67.1875 242.445312 68.65625 239.742188 69.820312 236.886719 C 70.042969 236.339844 69.578125 235.6875 69.054688 235.542969 Z M 78.050781 237.875 C 77.425781 237.703125 76.929688 238.089844 76.707031 238.636719 C 75.621094 241.300781 74.175781 243.839844 72.5 246.183594 C 72.15625 246.664062 72.414062 247.398438 72.890625 247.679688 C 73.441406 248 74.042969 247.765625 74.386719 247.285156 C 76.179688 244.777344 77.652344 242.074219 78.8125 239.21875 C 79.035156 238.671875 78.570312 238.019531 78.050781 237.875 Z M 100.921875 235.496094 C 100.296875 235.324219 99.800781 235.710938 99.578125 236.257812 C 98.492188 238.921875 97.046875 241.460938 95.371094 243.804688 C 95.027344 244.285156 95.285156 245.019531 95.761719 245.296875 C 96.3125 245.621094 96.914062 245.386719 97.257812 244.90625 C 99.054688 242.398438 100.523438 239.695312 101.6875 236.839844 C 101.910156 236.292969 101.445312 235.640625 100.921875 235.496094 Z M 336.683594 222.875 C 336.589844 222.835938 336.480469 222.820312 336.371094 222.808594 C 335.960938 222.769531 335.488281 222.921875 335.320312 223.324219 C 335.28125 223.410156 335.246094 223.496094 335.210938 223.585938 C 335.210938 223.582031 335.210938 223.582031 335.210938 223.582031 C 335.0625 223.941406 334.914062 224.300781 334.761719 224.660156 C 333.726562 227.136719 332.707031 229.621094 331.730469 232.125 C 331.515625 232.671875 331.964844 233.324219 332.492188 233.46875 C 333.113281 233.636719 333.621094 233.257812 333.835938 232.703125 C 334.789062 230.269531 335.777344 227.847656 336.789062 225.433594 C 336.792969 225.429688 336.796875 225.425781 336.796875 225.417969 C 336.972656 225 337.144531 224.582031 337.316406 224.164062 C 337.425781 223.90625 337.367188 223.617188 337.222656 223.371094 C 337.09375 223.148438 336.898438 222.960938 336.683594 222.875 Z M 348.648438 222.289062 C 348.386719 222.132812 348.046875 222.117188 347.75 222.210938 C 347.5 222.289062 347.273438 222.4375 347.15625 222.679688 C 345.367188 226.324219 343.742188 230.046875 342.28125 233.832031 C 342.066406 234.382812 342.515625 235.03125 343.042969 235.175781 C 343.660156 235.34375 344.175781 234.964844 344.386719 234.414062 C 344.5625 233.957031 344.75 233.507812 344.929688 233.054688 C 345.515625 231.585938 346.125 230.125 346.765625 228.679688 C 347.492188 227.03125 348.25 225.398438 349.042969 223.78125 C 349.132812 223.597656 349.160156 223.398438 349.15625 223.199219 C 349.152344 222.839844 348.996094 222.492188 348.648438 222.289062 Z M 423.601562 223.816406 C 423.324219 223.742188 423.082031 223.789062 422.867188 223.894531 C 422.601562 224.03125 422.386719 224.277344 422.257812 224.582031 C 421.535156 226.332031 420.8125 228.078125 420.085938 229.828125 C 419.578125 231.058594 419.070312 232.289062 418.5625 233.519531 C 418.335938 234.0625 418.804688 234.71875 419.324219 234.863281 C 419.953125 235.035156 420.441406 234.644531 420.667969 234.097656 C 421.902344 231.121094 423.132812 228.140625 424.367188 225.164062 C 424.59375 224.617188 424.121094 223.960938 423.601562 223.816406 Z M 435.871094 221.136719 C 435.277344 220.972656 434.707031 221.335938 434.523438 221.898438 C 433.679688 224.523438 432.832031 227.148438 431.988281 229.773438 C 431.824219 230.285156 432.140625 230.835938 432.613281 231.046875 C 432.660156 231.070312 432.703125 231.105469 432.75 231.121094 C 433.078125 231.210938 433.394531 231.128906 433.648438 230.949219 C 433.851562 230.808594 434.015625 230.605469 434.097656 230.355469 C 434.941406 227.730469 435.789062 225.105469 436.632812 222.480469 C 436.8125 221.917969 436.421875 221.289062 435.871094 221.136719 Z M 447.464844 222.886719 C 446.851562 222.71875 446.328125 223.09375 446.117188 223.648438 C 444.972656 226.699219 443.828125 229.75 442.683594 232.800781 C 442.472656 233.355469 442.914062 234 443.445312 234.148438 C 444.058594 234.316406 444.582031 233.9375 444.789062 233.382812 C 445.023438 232.757812 445.257812 232.136719 445.492188 231.511719 C 445.664062 231.058594 445.832031 230.605469 446.003906 230.148438 C 446.304688 229.347656 446.605469 228.546875 446.910156 227.742188 C 447.347656 226.570312 447.789062 225.402344 448.226562 224.230469 C 448.265625 224.132812 448.273438 224.03125 448.273438 223.929688 C 448.269531 223.464844 447.902344 223.003906 447.464844 222.886719 Z M 447.464844 222.886719 " fill-opacity="1" fill-rule="nonzero"/></svg>